# xmcd
#
# Track frame offsets:
#	150
#	32261
#	55223
#	84997
#	110099
#	134471
#	155867
#	184089
#
# Disc length: 3024 seconds
#
# Revision: 0
# Processed by: cddbd v1.5.2PL0 Copyright (c) Steve Scherf et al.
# Submitted via: audiograbber 1.83.01
#
DISCID=660bce08
DTITLE=Eric Clapton - Slowhand At 70 - Live At The Royal Albert Hall [CD 1]
DYEAR=2015
DGENRE=Rock/Blues
TTITLE0=Somebody's Knockin' On My Door [live]
TTITLE1=Key To The Highway [live]
TTITLE2=Tell The Truth [live]
TTITLE3=Pretending [live]
TTITLE4=Hoochie Coochie Man [live]
TTITLE5=You Are So Beautiful [live]
TTITLE6=Can't Find My Way Home [live]
TTITLE7=I Shot The Sheriff [live]
EXTD=
EXTT0=
EXTT1=
EXTT2=
EXTT3=
EXTT4=
EXTT5=
EXTT6=
EXTT7=
PLAYORDER=
